<?xml version="1.0" encoding="UTF-8"?>
<svg xmlns="http://www.w3.org/2000/svg" xmlns:xlink="http://www.w3.org/1999/xlink" width="30px" height="30px" viewBox="0 0 30 30" version="1.1">
<g id="surface1">
<path style=" stroke:none;fill-rule:nonzero;fill:rgb(96.470588%,62.7451%,61.176473%);fill-opacity:1;" d="M 30.039062 15.019531 C 30.039062 6.722656 23.3125 0 15.019531 0 C 6.722656 0 0 6.722656 0 15.019531 C 0 23.3125 6.722656 30.039062 15.019531 30.039062 C 23.3125 30.039062 30.039062 23.3125 30.039062 15.019531 Z M 30.039062 15.019531 "/>
<path style=" stroke:none;fill-rule:nonzero;fill:rgb(100%,100%,100%);fill-opacity:1;" d="M 25.292969 20.996094 C 25.292969 21.257812 25.105469 21.445312 24.84375 21.445312 L 5.15625 21.445312 C 4.894531 21.445312 4.707031 21.257812 4.707031 20.996094 L 4.707031 6.5 C 4.707031 6.238281 4.894531 6.050781 5.15625 6.050781 L 24.882812 6.050781 C 25.144531 6.050781 25.328125 6.238281 25.328125 6.5 L 25.328125 20.996094 Z M 25.292969 20.996094 "/>
<path style=" stroke:none;fill-rule:nonzero;fill:rgb(72.941178%,72.941178%,72.941178%);fill-opacity:1;" d="M 11.132812 21.035156 L 18.867188 21.035156 L 18.867188 23.648438 L 11.132812 23.648438 Z M 11.132812 21.035156 "/>
<path style=" stroke:none;fill-rule:nonzero;fill:rgb(4.705882%,17.254902%,28.235295%);fill-opacity:1;" d="M 5.789062 6.949219 L 24.210938 6.949219 L 24.210938 18.34375 L 5.789062 18.34375 Z M 5.789062 6.949219 "/>
<path style=" stroke:none;fill-rule:nonzero;fill:rgb(100%,100%,100%);fill-opacity:1;" d="M 4.707031 17.96875 L 4.707031 20.996094 C 4.707031 21.257812 4.894531 21.445312 5.15625 21.445312 L 24.882812 21.445312 C 25.144531 21.445312 25.328125 21.257812 25.328125 20.996094 L 25.328125 17.96875 Z M 4.707031 17.96875 "/>
<path style=" stroke:none;fill-rule:nonzero;fill:rgb(100%,100%,100%);fill-opacity:1;" d="M 20.808594 25.441406 L 20.808594 24.621094 C 20.808594 23.984375 20.324219 23.5 19.6875 23.5 L 10.347656 23.5 C 9.714844 23.5 9.226562 23.984375 9.226562 24.621094 L 9.226562 25.441406 Z M 20.808594 25.441406 "/>
<path style=" stroke:none;fill-rule:nonzero;fill:rgb(4.705882%,17.254902%,28.235295%);fill-opacity:1;" d="M 15.578125 19.613281 C 15.578125 19.304688 15.328125 19.054688 15.019531 19.054688 C 14.710938 19.054688 14.457031 19.304688 14.457031 19.613281 C 14.457031 19.921875 14.710938 20.175781 15.019531 20.175781 C 15.328125 20.175781 15.578125 19.921875 15.578125 19.613281 Z M 15.578125 19.613281 "/>
<path style=" stroke:none;fill-rule:nonzero;fill:rgb(94.509804%,80.000001%,29.411766%);fill-opacity:1;" d="M 20.585938 11.992188 L 16.289062 11.992188 L 16.289062 7.695312 L 19.164062 7.695312 L 20.585938 9.003906 Z M 20.585938 11.992188 "/>
<path style=" stroke:none;fill-rule:nonzero;fill:rgb(100%,95.294118%,78.823531%);fill-opacity:1;" d="M 20.585938 9.003906 L 19.164062 9.003906 L 19.164062 7.695312 Z M 20.585938 9.003906 "/>
<path style=" stroke:none;fill-rule:nonzero;fill:rgb(33.333334%,67.058825%,60.000002%);fill-opacity:1;" d="M 16.925781 8.667969 L 18.980469 8.667969 L 18.980469 9.042969 L 16.925781 9.042969 Z M 16.925781 8.667969 "/>
<path style=" stroke:none;fill-rule:nonzero;fill:rgb(33.333334%,67.058825%,60.000002%);fill-opacity:1;" d="M 16.925781 9.675781 L 19.949219 9.675781 L 19.949219 10.050781 L 16.925781 10.050781 Z M 16.925781 9.675781 "/>
<path style=" stroke:none;fill-rule:nonzero;fill:rgb(33.333334%,67.058825%,60.000002%);fill-opacity:1;" d="M 16.925781 10.683594 L 19.949219 10.683594 L 19.949219 11.058594 L 16.925781 11.058594 Z M 16.925781 10.683594 "/>
<path style=" stroke:none;fill-rule:nonzero;fill:rgb(92.941177%,41.960785%,35.294119%);fill-opacity:1;" d="M 14.347656 17.371094 L 10.050781 17.371094 L 10.050781 13.113281 L 12.925781 13.113281 L 14.347656 14.421875 Z M 14.347656 17.371094 "/>
<path style=" stroke:none;fill-rule:nonzero;fill:rgb(96.470588%,62.7451%,61.176473%);fill-opacity:1;" d="M 14.347656 14.421875 L 12.925781 14.421875 L 12.925781 13.113281 Z M 14.347656 14.421875 "/>
<path style=" stroke:none;fill-rule:nonzero;fill:rgb(96.470588%,62.7451%,61.176473%);fill-opacity:1;" d="M 10.683594 14.085938 L 12.738281 14.085938 L 12.738281 14.457031 L 10.683594 14.457031 Z M 10.683594 14.085938 "/>
<path style=" stroke:none;fill-rule:nonzero;fill:rgb(96.470588%,62.7451%,61.176473%);fill-opacity:1;" d="M 10.683594 15.09375 L 13.710938 15.09375 L 13.710938 15.46875 L 10.683594 15.46875 Z M 10.683594 15.09375 "/>
<path style=" stroke:none;fill-rule:nonzero;fill:rgb(96.470588%,62.7451%,61.176473%);fill-opacity:1;" d="M 10.683594 16.066406 L 13.710938 16.066406 L 13.710938 16.4375 L 10.683594 16.4375 Z M 10.683594 16.066406 "/>
<path style=" stroke:none;fill-rule:nonzero;fill:rgb(92.941177%,41.960785%,35.294119%);fill-opacity:1;" d="M 10.945312 12.664062 L 10.574219 12.664062 L 10.574219 9.300781 C 10.574219 8.78125 10.984375 8.367188 11.507812 8.367188 L 14.90625 8.367188 L 14.90625 8.742188 L 11.507812 8.742188 C 11.207031 8.742188 10.945312 9.003906 10.945312 9.300781 Z M 10.945312 12.664062 "/>
<path style=" stroke:none;fill-rule:nonzero;fill:rgb(92.941177%,41.960785%,35.294119%);fill-opacity:1;" d="M 14.792969 9.414062 L 15.691406 8.554688 L 14.792969 7.695312 Z M 14.792969 9.414062 "/>
<path style=" stroke:none;fill-rule:nonzero;fill:rgb(94.509804%,80.000001%,29.411766%);fill-opacity:1;" d="M 19.613281 12.476562 L 19.988281 12.476562 L 19.988281 15.765625 C 19.988281 16.289062 19.578125 16.699219 19.054688 16.699219 L 15.652344 16.699219 L 15.652344 16.328125 L 19.054688 16.328125 C 19.351562 16.328125 19.613281 16.066406 19.613281 15.765625 Z M 19.613281 12.476562 "/>
<path style=" stroke:none;fill-rule:nonzero;fill:rgb(94.509804%,80.000001%,29.411766%);fill-opacity:1;" d="M 15.804688 15.652344 L 14.871094 16.511719 L 15.804688 17.371094 Z M 15.804688 15.652344 "/>
</g>
</svg>
